<svg width="960" height="420" viewBox="0 0 960 420" xmlns="http://www.w3.org/2000/svg" role="img" aria-labelledby="title desc">
  <title id="title">Painel Operacional PMESP</title>
  <desc id="desc">Banner azul com elementos taticos e identificacao operacional.</desc>
  <defs>
    <linearGradient id="bg" x1="0" y1="0" x2="1" y2="1">
      <stop offset="0%" stop-color="#081e38"/>
      <stop offset="100%" stop-color="#164477"/>
    </linearGradient>
    <linearGradient id="gold" x1="0" y1="0" x2="1" y2="0">
      <stop offset="0%" stop-color="#b1891c"/>
      <stop offset="100%" stop-color="#dfc26d"/>
    </linearGradient>
  </defs>

  <rect width="960" height="420" fill="url(#bg)" rx="26"/>
  <rect x="0" y="0" width="960" height="18" fill="url(#gold)"/>
  <rect x="0" y="402" width="960" height="18" fill="url(#gold)"/>

  <g opacity="0.24" stroke="#5d7fa8" stroke-width="2">
    <path d="M70 40H890"/>
    <path d="M70 100H890"/>
    <path d="M70 160H890"/>
    <path d="M70 220H890"/>
    <path d="M70 280H890"/>
    <path d="M70 340H890"/>
  </g>

  <g transform="translate(94,92)">
    <circle cx="82" cy="82" r="74" fill="#0e315b" stroke="#dfc26d" stroke-width="8"/>
    <polygon points="82,24 96,64 138,64 104,90 116,132 82,106 48,132 60,90 26,64 68,64" fill="#dfc26d"/>
    <path d="M82 44L89 64H110L93 76L99 96L82 84L65 96L71 76L54 64H75Z" fill="#0e315b"/>
  </g>

  <g fill="#dbe8f6" font-family="Barlow Condensed, Arial, sans-serif">
    <text x="230" y="158" font-size="70" font-weight="800" letter-spacing="4">PAINEL OPERACIONAL</text>
    <text x="230" y="230" font-size="64" font-weight="700" letter-spacing="8" fill="#dfc26d">PMESP</text>
    <text x="230" y="282" font-size="28" font-weight="500" letter-spacing="1">CHECKLIST DOCUMENTAL TATICO E ORGANIZADO</text>
  </g>

  <g opacity="0.35" fill="#8cabcc">
    <rect x="770" y="78" width="110" height="14" rx="2"/>
    <rect x="770" y="108" width="120" height="14" rx="2"/>
    <rect x="770" y="138" width="95" height="14" rx="2"/>
    <rect x="770" y="168" width="140" height="14" rx="2"/>
    <rect x="770" y="198" width="120" height="14" rx="2"/>
  </g>
</svg>
